<svg width="776" height="776" viewBox="0 0 776 776" fill="none" xmlns="http://www.w3.org/2000/svg">
<rect width="776" height="776" fill="#F8F4EA"/>
<path d="M610.16 298.454C607.777 332.263 596.83 392.203 551.986 424.953C528.046 443.237 498.944 453.493 468.83 454.261C546.601 425.748 579.087 356.274 592.417 307.634C598.987 306.055 605.076 302.905 610.16 298.454V298.454ZM580.764 282.034C563.109 379.138 502.199 445.61 399.357 449.317C401.741 424.247 414.364 354.244 480.836 334.559C517.505 324.364 551.574 306.457 580.764 282.034V282.034ZM540.51 220.241C546.453 242.903 546.665 266.686 541.128 289.45C529.332 296.534 516.994 302.673 504.229 307.811C501.079 283.872 491.67 261.187 476.952 242.046C496.401 230.457 518.044 223.033 540.51 220.241V220.241ZM492.047 184.931C496.765 193.04 500.471 201.697 503.081 210.708C489.904 214.69 477.404 220.643 466.006 228.363C461.415 222.978 456.648 217.858 451.97 213.091C462.371 200.076 476.277 190.306 492.047 184.931V184.931ZM390 184.931C399.799 191.287 484.19 248.225 487.103 314.079C483.396 315.314 479.777 316.55 475.804 317.698C424.074 333.234 400.593 374.283 390 408.092C379.407 374.283 355.926 333.234 304.284 317.345C300.312 316.197 296.692 314.961 292.985 313.726C295.81 248.225 380.201 191.287 390 184.931ZM287.777 184.931C303.732 190.039 317.806 199.78 328.207 212.914C323.528 217.681 318.761 222.713 314.259 228.098C302.81 220.411 290.286 214.462 277.095 210.443C279.677 201.561 283.261 193.003 287.777 184.931ZM239.401 220.241C261.854 223.211 283.491 230.623 303.048 242.046C288.333 261.155 278.924 283.811 275.771 307.723C262.959 302.593 250.588 296.423 238.783 289.273C233.395 266.552 233.607 242.862 239.401 220.241ZM299.164 335C366.43 355.127 378.612 424.777 380.731 449.759C278.154 445.963 217.068 379.138 199.236 282.034C228.26 306.802 262.375 324.884 299.164 335V335ZM187.495 307.634C200.825 356.186 233.222 425.394 310.552 454.084C280.793 453.16 252.064 442.977 228.367 424.953C183.523 392.291 172.488 332.352 169.928 298.542C174.951 302.965 180.983 306.088 187.495 307.634V307.634ZM231.103 467.414C196.411 467.414 159.335 444.374 142.828 430.779C158.343 423.487 174.472 417.579 191.026 413.124C206.045 432.155 225.423 447.294 247.523 457.262C244.433 460.175 240.902 463.706 237.194 467.767L231.103 467.414ZM222.276 538.034C226.425 499.458 255.997 472.357 265.972 464.236C280.009 468.973 294.682 471.562 309.492 471.916C303.246 486.827 300.79 503.052 302.342 519.143C277.073 530.403 249.913 536.811 222.276 538.034ZM390 591C363.517 576.611 319.379 543.772 319.379 511.552C319.4 497.43 322.854 483.524 329.443 471.033C338.459 470.081 347.342 468.127 355.926 465.207C378.516 468.165 401.396 468.165 423.986 465.207C432.554 468.199 441.442 470.184 450.469 471.121C457.074 483.578 460.558 497.452 460.621 511.552C460.621 543.772 416.483 576.611 390 591ZM477.57 519.055C479.1 502.964 476.644 486.744 470.419 471.828C485.427 471.502 500.303 468.943 514.557 464.236C537.852 482.412 553.299 508.821 557.724 538.034C530.09 536.724 502.94 530.288 477.658 519.055H477.57ZM548.897 467.414H542.806C539.186 463.353 535.655 459.91 532.566 456.997C554.943 447.163 574.58 432.011 589.768 412.859C606.174 416.974 622.072 422.895 637.172 430.514C632.67 434.31 591.71 467.414 548.897 467.414Z" fill="black"/>
</svg>
